<svg width="32" height="32" viewBox="0 0 32 32" fill="none" xmlns="http://www.w3.org/2000/svg">
  <defs>
    <linearGradient id="shine" x1="0%" y1="0%" x2="100%" y2="100%">
      <stop offset="0%" stop-color="#FFD700" />
      <stop offset="50%" stop-color="#00B4D8" />
      <stop offset="100%" stop-color="#FFD700" />
    </linearGradient>
  </defs>

  <!-- 黑色背景 -->
  <rect width="32" height="32" rx="8" fill="#000000" />

  <!-- 钻石切割形状 - 简化版 -->
  <g transform="translate(5, 5)">
    <path d="M11 0L22 11L11 22L0 11L11 0Z" fill="#FFD700" />
    <path d="M11 2L20 11L11 20L2 11L11 2Z" fill="#000000" />
    <path d="M11 4L18 11L11 18L4 11L11 4Z" fill="#00B4D8" opacity="0.8" />
    <path d="M11 6L16 11L11 16L6 11L11 6Z" fill="#FFD700" />
    <path d="M11 8L14 11L11 14L8 11L11 8Z" fill="#FFFFFF" opacity="0.9" />
  </g>
</svg> 